<svg xmlns="http://www.w3.org/2000/svg" viewBox="0 0 32 32" width="32" height="32">
  <!-- Background circle -->
  <circle cx="16" cy="16" r="15" fill="#2563eb" stroke="#1e40af" stroke-width="2"/>
  
  <!-- Car body -->
  <path d="M8 18 L10 14 L12 12 L20 12 L22 14 L24 18 L24 22 L22 22 L22 20 L10 20 L10 22 L8 22 Z" 
        fill="#ffffff" stroke="#e5e7eb" stroke-width="0.5"/>
  
  <!-- Car windows -->
  <path d="M11 14 L12.5 12.5 L19.5 12.5 L21 14 L19 16 L13 16 Z" 
        fill="#bfdbfe" stroke="#93c5fd" stroke-width="0.5"/>
  
  <!-- Car wheels -->
  <circle cx="11" cy="20" r="2" fill="#374151" stroke="#6b7280" stroke-width="0.5"/>
  <circle cx="21" cy="20" r="2" fill="#374151" stroke="#6b7280" stroke-width="0.5"/>
  
  <!-- Wheel centers -->
  <circle cx="11" cy="20" r="1" fill="#9ca3af"/>
  <circle cx="21" cy="20" r="1" fill="#9ca3af"/>
  
  <!-- Driver icon (steering wheel) -->
  <circle cx="16" cy="15" r="1.5" fill="none" stroke="#2563eb" stroke-width="0.8"/>
  <circle cx="16" cy="15" r="0.3" fill="#2563eb"/>
  
  <!-- Booking indicator (small checkmark) -->
  <path d="M25 8 L27 10 L30 7" fill="none" stroke="#10b981" stroke-width="1.5" stroke-linecap="round" stroke-linejoin="round"/>
</svg>
